<?xml version="1.0" encoding="utf-8"?>
<!-- Generator: Adobe Illustrator 16.0.0, SVG Export Plug-In . SVG Version: 6.00 Build 0)  -->
<!DOCTYPE svg PUBLIC "-//W3C//DTD SVG 1.1//EN" "http://www.w3.org/Graphics/SVG/1.1/DTD/svg11.dtd">
<svg version="1.1" id="Layer_1" xmlns="http://www.w3.org/2000/svg" xmlns:xlink="http://www.w3.org/1999/xlink" x="0px" y="0px"
	 width="160px" height="160px" viewBox="0 0 160 160" enable-background="new 0 0 160 160" xml:space="preserve">
<path fill="#00B1B9" d="M160,80c0,44.183-35.814,80-80,80c-44.184,0-80-35.817-80-80S35.816,0,80,0C124.186,0,160,35.817,160,80z"/>
<path fill="#44C1F0" d="M160,80c0,44.183-35.814,80-80,80c-44.184,0-80-35.817-80-80S35.816,0,80,0C124.186,0,160,35.817,160,80z"/>
<g>
	<polygon fill="#FFFFFF" points="36.95,39.659 37.474,89.948 121.82,89.689 122.343,38.346 	"/>
	<polygon fill="#FAB30B" points="68.131,110.29 65.715,114.571 96.572,115.23 93.827,110.729 	"/>
	<polygon fill="#44C1F0" points="36.067,97.987 29.81,110.181 129.735,110.29 121.938,97.88 	"/>
	<polyline fill="#00B1B9" points="22.726,116.529 22.726,120.729 137.161,120.043 137.215,116.529 134.99,115.371 92.602,115.206 
		75.485,115.371 38.617,116.113 25.732,115.262 	"/>
	<g>
		<path fill="#253147" d="M120.352,35.27H36.348c-2.665,0-4.813,2.16-4.813,4.818v48.659c0,2.661,2.147,4.827,4.813,4.827h84.004
			c2.672,0,4.82-2.166,4.82-4.827V40.087C125.172,37.429,123.023,35.27,120.352,35.27z M117.603,86.986H38.746V41.228h78.856V86.986
			z"/>
		<g>
			<path fill="#253147" d="M136.615,116.411c0.133,0,0.256,0.045,0.375,0.118h0.225l-13.761-19.938l-90.352-0.199l-10.377,20.137
				h0.284c0.12-0.073,0.243-0.118,0.377-0.118H136.615z M67.665,114.169l1.532-2.783l20.271,0.022l2.019,2.761H67.665z
				 M37.989,99.121l80.084,0.071l7.032,10.029l-91.999-0.114L37.989,99.121z"/>
			<path fill="#253147" d="M136.99,119.36H23.01c-0.566,0.326-0.982,1.362-0.982,2.62c0,1.526,0.603,2.749,1.359,2.749h113.229
				c0.757,0,1.357-1.223,1.357-2.749C137.973,120.723,137.563,119.687,136.99,119.36z"/>
		</g>
		<path fill="#FAB30B" d="M97.434,71.34l-6.665-5.05c-0.118-0.118-0.257-0.2-0.383-0.262l3.762-4.649l-8.291-1.332L77.55,58.72
			l3.002,7.848l3.012,7.864l3.388-4.168c0.12,0.126,0.293,0.274,0.482,0.409l6.638,5.085c0.741,0.55,1.506,0.791,1.735,0.511
			l2.595-3.406C98.607,72.584,98.168,71.907,97.434,71.34z"/>
	</g>
</g>
<path opacity="0.3" fill="#FFFFFF" d="M85.027,76.805h-5.24c-2.665,0-4.813,2.16-4.813,4.818v1.573
	C76.529,80.816,79.484,78.313,85.027,76.805z"/>
<path opacity="0.3" fill="#FFFFFF" d="M74.974,76.805h5.239c2.666,0,4.814,2.16,4.814,4.818v1.573
	C83.47,80.816,80.517,78.313,74.974,76.805z"/>
<path opacity="0.3" fill="#FFFFFF" d="M85.027,83.194h-5.241c-2.665,0-4.813-2.16-4.813-4.818v-1.569
	C76.529,79.188,79.484,81.69,85.027,83.194z"/>
<path opacity="0.3" fill="#FFFFFF" d="M74.974,83.194h5.24c2.665,0,4.813-2.16,4.813-4.818v-1.569
	C83.471,79.188,80.517,81.69,74.974,83.194z"/>
<path opacity="0.3" fill="#FFFFFF" d="M78.653,77.928l-2.229,4.145h7.149C83.574,82.072,78.653,81.245,78.653,77.928z"/>
<path opacity="0.3" fill="#FFFFFF" d="M81.484,78l2.58,4h-8.129C75.935,82,81.484,81.313,81.484,78z"/>
</svg>
