<?xml version="1.0" encoding="utf-8"?>
<!-- Generator: Adobe Illustrator 16.0.0, SVG Export Plug-In . SVG Version: 6.00 Build 0)  -->
<!DOCTYPE svg PUBLIC "-//W3C//DTD SVG 1.1//EN" "http://www.w3.org/Graphics/SVG/1.1/DTD/svg11.dtd">
<svg version="1.1" id="Layer_1" xmlns="http://www.w3.org/2000/svg" xmlns:xlink="http://www.w3.org/1999/xlink" x="0px" y="0px"
	 width="160px" height="160px" viewBox="0 0 160 160" enable-background="new 0 0 160 160" xml:space="preserve">
<circle fill="#00B1B9" cx="80.278" cy="79.277" r="77.278"/>
<linearGradient id="SVGID_1_" gradientUnits="userSpaceOnUse" x1="188.6963" y1="148.4141" x2="185.2059" y2="145.522">
	<stop  offset="0" style="stop-color:#FFFFFF"/>
	<stop  offset="0.0718" style="stop-color:#DFDFDF"/>
	<stop  offset="0.2156" style="stop-color:#A5A5A5"/>
	<stop  offset="0.3593" style="stop-color:#727272"/>
	<stop  offset="0.4998" style="stop-color:#494949"/>
	<stop  offset="0.6362" style="stop-color:#292929"/>
	<stop  offset="0.7674" style="stop-color:#121212"/>
	<stop  offset="0.8912" style="stop-color:#050505"/>
	<stop  offset="1" style="stop-color:#000000"/>
</linearGradient>
<line opacity="0.5" fill="url(#SVGID_1_)" x1="168.089" y1="174.684" x2="204.845" y2="118.449"/>
<circle fill="#44C1F0" cx="80.278" cy="79.277" r="77.278"/>
<linearGradient id="SVGID_2_" gradientUnits="userSpaceOnUse" x1="154.4883" y1="151.8281" x2="86.1633" y2="95.2159">
	<stop  offset="0" style="stop-color:#FFFFFF"/>
	<stop  offset="0.0718" style="stop-color:#DFDFDF"/>
	<stop  offset="0.2156" style="stop-color:#A5A5A5"/>
	<stop  offset="0.3593" style="stop-color:#727272"/>
	<stop  offset="0.4998" style="stop-color:#494949"/>
	<stop  offset="0.6362" style="stop-color:#292929"/>
	<stop  offset="0.7674" style="stop-color:#121212"/>
	<stop  offset="0.8912" style="stop-color:#050505"/>
	<stop  offset="1" style="stop-color:#000000"/>
</linearGradient>
<polyline opacity="0.5" fill="url(#SVGID_2_)" points="204.845,118.449 166.485,81.709 122.181,37.408 91.056,41.166 79.781,52.8 
	89.1,62.688 91.973,59.898 89.153,65.132 84.722,76.411 88.348,88.092 77.89,78.113 73.284,72.046 34.899,91.109 39.346,96.079 
	24.399,121.429 84.259,181.29 "/>
<g>
	<polygon fill="#FFFFFF" points="38.692,40.311 39.199,88.89 120.674,88.639 121.179,39.043 	"/>
	<polygon fill="#FAB30B" points="68.813,108.538 66.479,112.675 96.285,113.311 93.634,108.963 	"/>
	<polygon fill="#44C1F0" points="37.84,96.655 31.795,108.433 128.319,108.538 120.787,96.55 	"/>
	<polyline fill="#44C1F0" points="24.953,114.564 24.953,118.622 135.493,117.959 135.545,114.564 133.396,113.447 92.449,113.288 
		75.916,113.447 40.303,114.164 27.857,113.342 	"/>
	<g>
		<path fill="#253147" d="M119.256,36.071H38.11c-2.574,0-4.648,2.086-4.648,4.654v47.003c0,2.569,2.075,4.661,4.648,4.661h81.146
			c2.58,0,4.656-2.092,4.656-4.661V40.725C123.912,38.158,121.836,36.071,119.256,36.071z M116.601,86.027H40.428V41.826h76.173
			V86.027z"/>
		<g>
			<path fill="#253147" d="M134.965,114.452c0.129,0,0.248,0.043,0.363,0.112h0.217l-13.292-19.258l-87.277-0.193l-10.023,19.451
				h0.274c0.116-0.069,0.235-0.112,0.365-0.112H134.965z M68.363,112.286l1.479-2.689l19.582,0.022l1.95,2.667H68.363z
				 M39.696,97.75l77.359,0.069l6.792,9.688l-88.868-0.11L39.696,97.75z"/>
			<path fill="#253147" d="M135.328,117.3H25.227c-0.547,0.314-0.949,1.315-0.949,2.53c0,1.476,0.582,2.657,1.313,2.657h109.374
				c0.731,0,1.313-1.182,1.313-2.657C136.277,118.615,135.881,117.614,135.328,117.3z"/>
		</g>
		<path fill="#FAB30B" d="M97.117,70.914l-6.438-4.878c-0.114-0.114-0.247-0.193-0.369-0.253l3.633-4.491l-8.008-1.287l-8.024-1.281
			l2.9,7.58L83.72,73.9l3.272-4.027c0.116,0.122,0.283,0.265,0.465,0.395l6.413,4.912c0.716,0.531,1.455,0.763,1.677,0.494
			l2.505-3.29C98.252,72.115,97.826,71.461,97.117,70.914z"/>
	</g>
</g>
<path opacity="0.3" fill="#FFFFFF" d="M43.859,36.326h-5.062c-2.574,0-4.649,2.087-4.649,4.654v1.52
	C35.651,40.202,38.505,37.783,43.859,36.326z"/>
<path opacity="0.3" fill="#FFFFFF" d="M113.623,36.326h5.062c2.575,0,4.649,2.087,4.649,4.654v1.52
	C121.831,40.202,118.978,37.783,113.623,36.326z"/>
<path opacity="0.3" fill="#FFFFFF" d="M43.448,91.885h-5.062c-2.574,0-4.649-2.086-4.649-4.653v-1.517
	C35.24,88.016,38.094,90.433,43.448,91.885z"/>
<path opacity="0.3" fill="#FFFFFF" d="M113.211,91.885h5.063c2.574,0,4.648-2.086,4.648-4.653v-1.517
	C121.42,88.016,118.565,90.433,113.211,91.885z"/>
<path opacity="0.3" fill="#FFFFFF" d="M28.124,109.679l-2.152,4.004h6.906C32.878,113.683,28.124,112.884,28.124,109.679z"/>
<path opacity="0.3" fill="#FFFFFF" d="M131.749,109.818l2.492,3.864h-7.853C126.389,113.683,131.749,113.019,131.749,109.818z"/>
</svg>
