<?xml version="1.0" encoding="utf-8"?>
<!-- Generator: Adobe Illustrator 16.0.0, SVG Export Plug-In . SVG Version: 6.00 Build 0)  -->
<!DOCTYPE svg PUBLIC "-//W3C//DTD SVG 1.1//EN" "http://www.w3.org/Graphics/SVG/1.1/DTD/svg11.dtd">
<svg version="1.1" id="Layer_1" xmlns="http://www.w3.org/2000/svg" xmlns:xlink="http://www.w3.org/1999/xlink" x="0px" y="0px"
	 width="160px" height="160px" viewBox="0 0 160 160" enable-background="new 0 0 160 160" xml:space="preserve">
<path fill="#F9B210" d="M160.366,80c0,44.183-35.899,80-80.183,80C35.896,160,0,124.183,0,80C0,35.814,35.896,0,80.183,0
	C124.467,0,160.366,35.814,160.366,80z"/>
<path fill="none" d="M160,80.183C160,124.264,124.265,160,80.183,160c-44.084,0-79.817-35.736-79.817-79.817
	c0-44.084,35.732-79.817,79.817-79.817C124.265,0.366,160,36.098,160,80.183z"/>
<path fill="#44C1F0" d="M95.635,75.813c2.678,2.856,6.384,3.729,8.261,1.96l27.66-25.958c1.893-1.769,1.251-5.521-1.434-8.372
	l-2.394-2.555c-2.676-2.853-6.375-3.726-8.265-1.963L91.808,64.879c-1.89,1.776-1.249,5.532,1.434,8.375L95.635,75.813z"/>
<path fill="#253147" d="M83.308,71.425c0.763-2.84,1.111-5.828,0.968-8.919c-0.746-16.059-14.374-28.469-30.433-27.713
	c-2.226,0.1-4.374,0.476-6.435,1.047l20.634,16.703c3.327,2.706,3.783,7.687,0.993,11.131l-10.04,12.411
	c-2.79,3.439-7.761,4.031-11.104,1.329L26.375,59.992c-0.225,1.702-0.335,3.454-0.245,5.236
	c0.745,16.055,14.377,28.465,30.433,27.716c5.884-0.278,11.275-2.299,15.716-5.521l47.085,36.546
	c3.39,2.642,8.281,2.017,10.916-1.373l2.353-3.031c2.635-3.395,2.021-8.281-1.375-10.92L83.308,71.425z"/>
<path fill="#44C1F0" d="M73.745,92.67c-1.108-1.188-3.484-0.766-5.297,0.934L47.549,113.22l-6.193,2.688l-3.874,7.523l3.582,4.055
	l8.583-3.169l2.722-5.532l-0.01-0.013l21.12-19.813c1.81-1.698,2.376-4.049,1.266-5.233L73.745,92.67z"/>
<path opacity="0.5" fill="#FFFFFF" d="M26.418,60.485c0,0-1.477,11.135,4.803,19.21c0,0-3.8-4.907-1.531-16.148L26.418,60.485z"/>
<path opacity="0.5" fill="#FFFFFF" d="M47.905,35.83c0,0,10.859-2.874,19.664,2.339c0,0-5.347-3.152-16.213,0.521L47.905,35.83z"/>
<path opacity="0.5" fill="#FFFFFF" d="M127.322,40.586c-2.592-2.299-5.824-2.914-7.556-1.299l-5.604,5.257
	C117.728,42.261,123.473,39.247,127.322,40.586z"/>
<polygon opacity="0.5" fill="#FFFFFF" points="41.661,116.251 37.848,123.636 39.029,124.979 43.031,117.942 "/>
</svg>
