<?xml version="1.0" encoding="utf-8"?>
<!-- Generator: Adobe Illustrator 16.0.0, SVG Export Plug-In . SVG Version: 6.00 Build 0)  -->
<!DOCTYPE svg PUBLIC "-//W3C//DTD SVG 1.1//EN" "http://www.w3.org/Graphics/SVG/1.1/DTD/svg11.dtd">
<svg version="1.1" id="Layer_1" xmlns="http://www.w3.org/2000/svg" xmlns:xlink="http://www.w3.org/1999/xlink" x="0px" y="0px"
	 width="160px" height="160px" viewBox="0 0 160 160" enable-background="new 0 0 160 160" xml:space="preserve">
<path fill="#24CAFE" d="M160,79.875c0,44.115-35.757,79.876-79.875,79.876c-44.114,0-79.875-35.762-79.875-79.876S36.011,0,80.125,0
	C124.243,0,160,35.761,160,79.875z"/>
<path fill="none" d="M160,79.875c0,44.115-35.757,79.876-79.875,79.876c-44.114,0-79.875-35.762-79.875-79.876S36.011,0,80.125,0
	C124.243,0,160,35.761,160,79.875z"/>
<polygon fill="#FFFFFF" points="41.962,47.663 43.793,98.322 118.05,98.727 116.829,45.019 "/>
<g>
	<path fill="#253147" d="M96.823,113.012h-3.532c0.229-0.426,0.387-0.885,0.387-1.4c0-1.672-1.355-3.03-3.025-3.03H72.935
		c-1.668,0-3.028,1.358-3.028,3.03c0,0.517,0.167,0.976,0.386,1.4h-3.297c-2.121,0-3.842,1.725-3.842,3.844
		c0,2.121,1.721,3.843,3.842,3.843h29.828c2.123,0,3.846-1.722,3.846-3.843C100.669,114.736,98.945,113.012,96.823,113.012z"/>
	<path fill="#253147" d="M112.54,39.053H47.711c-6.634,0-12.012,5.376-12.012,12.011V92.25c0,6.639,5.377,12.012,12.012,12.012
		h64.829c6.636,0,12.013-5.373,12.013-12.012V51.064C124.553,44.429,119.176,39.053,112.54,39.053z M104.863,94.904H55.036
		c-7.056,0.135-9.266-2.467-9.234-8.563V56.975c0.357-6.905,2.697-8.465,9.234-8.562h49.827c8.225-0.034,9.265,2.825,9.234,8.562
		v29.367C114.391,92.959,111.398,95.168,104.863,94.904z"/>
</g>
<g opacity="0.5">
	<path fill="#FFFFFF" d="M51.207,39.461h-2.684c-6.635,0-12.011,5.376-12.011,12.007v2.438
		C38.914,49.713,43.69,43.031,51.207,39.461z"/>
</g>
<g opacity="0.5">
	<path fill="#FFFFFF" d="M109.346,39.461h2.684c6.635,0,12.011,5.376,12.011,12.007v2.438
		C121.639,49.713,116.861,43.031,109.346,39.461z"/>
</g>
<g opacity="0.5">
	<path fill="#FFFFFF" d="M51.207,103.543h-2.684c-6.635,0-12.011-5.375-12.011-12.01v-2.436
		C38.914,93.289,43.69,99.971,51.207,103.543z"/>
</g>
<g opacity="0.5">
	<path fill="#FFFFFF" d="M109.346,103.543h2.684c6.635,0,12.011-5.375,12.011-12.01v-2.436
		C121.639,93.289,116.861,99.971,109.346,103.543z"/>
</g>
<path opacity="0.3" enable-background="new    " d="M73.033,108.729c0,0-1.721,0.104-2.362,1.215c0,0,8.433,5.398,22.167,0
	c0,0-0.543-1.315-2.195-1.248L73.033,108.729z"/>
</svg>
